<?xml version="1.0" encoding="UTF-8" standalone="no"?>
<!-- Created with Inkscape (http://www.inkscape.org/) -->
<svg
   xmlns:svg="http://www.w3.org/2000/svg"
   xmlns="http://www.w3.org/2000/svg"
   version="1.0"
   width="600"
   height="550"
   id="svg2">
  <defs
     id="defs5" />
  <path
     d="M 411.40584,266.24667 C 415.06618,364.65817 339.52498,423.80635 252.55204,423.80635 C 224.68591,423.80635 216.67401,422.06301 197.33825,420.10563 C 182.65707,445.98763 190.01329,466.59946 169.97774,493.29787 C 153.78884,486.33711 138.5211,475.82962 119.38022,466.24683 C 126.83299,445.18889 136.03746,422.68383 161.7555,403.37321 C 119.85766,369.45262 98.969051,319.73375 94.345297,266.5702 C 88.252375,196.51425 133.7504,142.13796 192.54231,119.84187 C 228.07049,88.284243 269.30376,70.255762 318.00301,120.66045 C 374.49341,144.6138 411.40584,201.05588 411.40584,266.24667 z "
     transform="matrix(1.127315,0,0,1.127315,54.12061,-26.96743)"
     style="fill:#a7adb6;fill-opacity:1;stroke:black;stroke-width:0.88706362;stroke-linecap:butt;stroke-miterlimit:4;stroke-opacity:1"
     id="path3647" />
  <path
     d="M 509.69256,276.11311 C 500.9619,375.35182 440.05278,440.13552 342.78306,443.74608 C 250.71188,447.16368 178.73993,367.45382 173.30573,275.08152 C 169.19719,205.24305 228.57591,107.80201 342.78306,108.48012 C 442.63077,109.07296 509.17898,188.73763 509.69256,276.11311 z "
     style="fill:#ecb100;fill-opacity:1;stroke:black;stroke-width:0.99999917;stroke-linecap:butt;stroke-miterlimit:4;stroke-opacity:1"
     id="path6760" />
  <path
     d="M 391.08715 261.41321 A 104.04775 107.02727 0 1 1  182.99165,261.41321 A 104.04775 107.02727 0 1 1  391.08715 261.41321 z"
     transform="matrix(1.53012,0,0,1.53012,-98.00709,-127.7488)"
     style="fill:#434549;fill-opacity:1;stroke:black;stroke-width:0.65354329;stroke-linecap:butt;stroke-miterlimit:4;stroke-dasharray:none;stroke-opacity:1"
     id="path7649" />
  <path
     d="M 199.13793,503.31564 C 211.52524,470.50745 229.15525,452.0813 237.61605,443.31896 C 245.71213,434.92134 247.25233,428.06509 249.10478,421.25331 C 251.00337,414.27188 244.64725,404.16215 237.79841,399.37003 C 230.82662,394.49188 209.88135,370.89532 203.33222,359.98011 C 196.78309,349.0649 187.90188,325.31838 186.37268,317.67242 C 185.75862,314.60214 179.79153,292.72278 178.73113,269.49648 C 178.20839,258.04677 180.51316,234.735 186.83743,218.02601 C 192.56721,202.88768 198.08818,198.01689 204.06167,188.74337 C 191.71599,211.76492 182.57398,237.20603 182.89241,263.40747 C 183.21083,289.42654 191.67109,333.3696 207.24774,354.13348 C 213.31146,362.21649 228.63986,386.63797 247.36239,398.84521 C 267.69193,399.25859 267.3657,406.46986 269.93019,413.23375 C 287.48054,409.09514 300.58733,425.24124 313.05695,430.70967 C 329.00179,429.88583 349.90299,436.76527 357.01726,435.66035 C 365.93685,434.27506 365.80634,429.40625 373.11019,427.98873 C 393.99317,423.9358 413.41294,416.40561 427.27382,407.23026 C 443.55113,396.45534 470.20112,368.91231 485.47243,337.1256 C 490.45636,326.75172 500.29419,294.08042 498.6221,262.21412 C 497.12896,233.75829 494.3495,224.65838 479.60874,191.11405 C 495.19937,222.57737 505.64277,231.46044 504.04509,271.35278 C 502.44792,311.23219 496.6511,338.16785 468.3024,377.12202 C 457.47158,392.00472 425.57273,421.66615 393.89776,431.09464 C 335.87663,448.36542 286.95483,433.88711 282.74634,432.84254 C 275.91704,431.14746 271.54948,438.04802 268.0152,440.59655 C 264.56534,443.08419 255.45025,465.27792 254.57559,468.48474 C 250.4707,483.53474 248.3027,503.08809 234.69827,523.74005"
     style="fill:red;fill-opacity:1;fill-rule:evenodd;stroke:black;stroke-width:1;stroke-linecap:butt;stroke-linejoin:miter;stroke-miterlimit:4;stroke-dasharray:none;stroke-opacity:1"
     id="path1873" />
  <path
     d="M 394.4463,127.47016 C 394.4463,141.16035 371.81606,152.27122 343.93237,152.27122 C 316.04869,152.27122 293.41845,141.16035 293.41845,127.47016 C 313.89611,108.99066 375.01215,111.69518 394.4463,127.47016 z "
     transform="matrix(1,0,0,1.136029,0.18236,-19.07211)"
     style="fill:#94b3c3;fill-opacity:1;stroke:black;stroke-width:0.93822116;stroke-linecap:butt;stroke-miterlimit:4;stroke-opacity:1"
     id="path9428" />
  <path
     d="M 284.66512,118.16976 C 344.90171,108.93374 356.68929,108.15952 398.82294,117.80503 C 388.04019,96.555402 372.11337,85.318713 344.29709,83.885942 C 316.64143,82.461444 299.91492,99.105515 284.66513,117.9874"
     style="fill:#d1d3d3;fill-opacity:1;fill-rule:evenodd;stroke:black;stroke-width:1px;stroke-linecap:butt;stroke-linejoin:miter;stroke-opacity:1"
     id="path7656" />
  <path
     d="M 254.5756,131.48209 C 262.99213,126.27496 269.89345,119.05941 283.20623,117.44031 C 321.2404,112.8146 312.57398,114.77012 285.96479,119.89205 C 286.86102,125.33167 289.55494,129.90249 287.40054,135.49403 C 284.08365,135.24736 283.51536,128.38934 280.65319,130.75265 C 280.08174,131.46695 279.75084,132.0724 278.46486,132.3939 C 277.05184,132.74715 276.44569,130.83723 274.81764,130.02321 C 273.93144,129.58011 271.36634,135.23312 270.89689,135.58521 C 268.55148,135.94449 267.63397,134.54819 265.6996,133.12334 C 262.99272,132.44662 264.94067,136.46752 262.50829,135.31166 C 260.7324,134.46777 257.43038,134.30149 256.67275,135.31167 C 253.88617,134.89272 255.17282,133.97922 254.5756,131.48209 z "
     style="fill:#980000;fill-opacity:1;fill-rule:evenodd;stroke:black;stroke-width:1px;stroke-linecap:butt;stroke-linejoin:miter;stroke-opacity:1"
     id="path11201" />
  <path
     d="M 431.80921,132.62257 C 423.39268,127.41544 414.98334,119.44248 394.42526,116.11892 C 349.32957,108.82844 359.86023,111.89866 399.32586,121.21489 C 398.61199,126.47215 397.55931,130.40471 399.71371,135.99625 C 403.0306,135.74958 402.86945,129.52982 405.73162,131.89313 C 406.30307,132.60743 406.63397,133.21288 407.91995,133.53438 C 409.33297,133.88763 409.93912,131.97771 411.56717,131.16369 C 412.45337,130.72059 415.01847,136.3736 415.48792,136.72569 C 417.83333,137.08497 418.75084,135.68867 420.68521,134.26382 C 423.39209,133.5871 421.44414,137.608 423.87652,136.45214 C 425.65241,135.60825 428.95443,135.44197 429.71206,136.45215 C 432.49864,136.0332 431.21199,135.1197 431.80921,132.62257 z "
     style="fill:#980000;fill-opacity:1;fill-rule:evenodd;stroke:black;stroke-width:1px;stroke-linecap:butt;stroke-linejoin:miter;stroke-opacity:1"
     id="path12088" />
  <path
     d="M 392.34914,135.22049 C 393.54968,136.31466 395.70761,136.17789 398.95972,135.58521"
     style="fill:#ecb100;fill-opacity:1;fill-rule:evenodd;stroke:#d1ef00;stroke-width:1px;stroke-linecap:butt;stroke-linejoin:miter;stroke-opacity:1"
     id="path12090" />
  <path
     d="M 288.38801,133.20276 C 292.3951,133.48426 293.48443,133.08191 294.57376,132.45161"
     style="fill:#ecb100;fill-opacity:1;fill-rule:evenodd;stroke:#d1ef00;stroke-width:1.00000024px;stroke-linecap:butt;stroke-linejoin:miter;stroke-opacity:1"
     id="path12977" />
  <path
     d="M 285.34897,121.90815 C 287.02747,122.99242 288.18512,124.3723 289.4065,126.14804 C 289.85571,126.80113 290.74401,127.98704 291.23011,128.47314 C 291.85109,129.09413 292.01842,130.57029 293.82875,130.57029"
     style="fill:none;fill-opacity:0.75;fill-rule:evenodd;stroke:#980000;stroke-width:1px;stroke-linecap:butt;stroke-linejoin:miter;stroke-opacity:1"
     id="path12979" />
  <path
     d="M 294.42142,123.27586 C 295.04038,123.74007 293.1577,124.24178 292.78018,124.91711 C 290.50399,128.98887 287.14201,130.3729 286.94463,130.57029"
     style="fill:none;fill-opacity:1;fill-rule:evenodd;stroke:#980000;stroke-width:1px;stroke-linecap:butt;stroke-linejoin:miter;stroke-opacity:1"
     id="path12981" />
  <path
     d="M 400.92338,126.47093 C 396.88984,126.6023 395.58846,134.96171 393.02982,133.89473"
     style="fill:none;fill-opacity:0.75;fill-rule:evenodd;stroke:#980000;stroke-width:1.00000012px;stroke-linecap:butt;stroke-linejoin:miter;stroke-opacity:1"
     id="path13868" />
  <path
     d="M 400.58132,133.06903 C 395.3547,133.85985 397.10963,127.11181 395.02089,127.07585"
     style="fill:none;fill-opacity:1;fill-rule:evenodd;stroke:#980000;stroke-width:0.9999997px;stroke-linecap:butt;stroke-linejoin:miter;stroke-opacity:1"
     id="path13870" />
  <path
     d="M 61.5,262 L 165,264"
     style="fill:none;fill-opacity:0.75;fill-rule:evenodd;stroke:black;stroke-width:1px;stroke-linecap:butt;stroke-linejoin:miter;stroke-opacity:1"
     id="path14008" />
  <path
     d="M 109.5,234 L 179.5,234"
     style="fill:none;fill-opacity:0.75;fill-rule:evenodd;stroke:black;stroke-width:1px;stroke-linecap:butt;stroke-linejoin:miter;stroke-opacity:1"
     id="path14010" />
  <path
     d="M 148,201.5 L 193.5,203.5"
     style="fill:none;fill-opacity:0.75;fill-rule:evenodd;stroke:black;stroke-width:1px;stroke-linecap:butt;stroke-linejoin:miter;stroke-opacity:1"
     id="path14012" />
  <path
     d="M 193.5,115.5 L 289,127"
     style="fill:none;fill-opacity:0.75;fill-rule:evenodd;stroke:black;stroke-width:1px;stroke-linecap:butt;stroke-linejoin:miter;stroke-opacity:1"
     id="path14014" />
  <path
     d="M 206,84.5 L 293,120"
     style="fill:none;fill-opacity:0.75;fill-rule:evenodd;stroke:black;stroke-width:1px;stroke-linecap:butt;stroke-linejoin:miter;stroke-opacity:1"
     id="path14016" />
  <path
     d="M 319,166 L 291,132.5"
     style="fill:none;fill-opacity:0.75;fill-rule:evenodd;stroke:black;stroke-width:1px;stroke-linecap:butt;stroke-linejoin:miter;stroke-opacity:1"
     id="path14018" />
  <path
     d="M 257.5,53.5 L 302,112"
     style="fill:none;fill-opacity:0.75;fill-rule:evenodd;stroke:black;stroke-width:1px;stroke-linecap:butt;stroke-linejoin:miter;stroke-opacity:1"
     id="path14020" />
  <path
     d="M 316,43 L 338.5,102"
     style="fill:none;fill-opacity:0.75;fill-rule:evenodd;stroke:black;stroke-width:1px;stroke-linecap:butt;stroke-linejoin:miter;stroke-opacity:1"
     id="path14022" />
  <path
     d="M 397,56 L 370.5,83.5"
     style="fill:none;fill-opacity:0.75;fill-rule:evenodd;stroke:black;stroke-width:1px;stroke-linecap:butt;stroke-linejoin:miter;stroke-opacity:1"
     id="path14024" />
  <path
     d="M 360.5,98 L 410,92.5"
     style="fill:none;fill-opacity:0.75;fill-rule:evenodd;stroke:black;stroke-width:1px;stroke-linecap:butt;stroke-linejoin:miter;stroke-opacity:1"
     id="path14026" />
  <path
     d="M 414.5,128.5 L 476.5,124.5"
     style="fill:none;fill-opacity:0.75;fill-rule:evenodd;stroke:black;stroke-width:1px;stroke-linecap:butt;stroke-linejoin:miter;stroke-opacity:1"
     id="path14028" />
  <path
     d="M 356,436.5 L 355,455"
     style="fill:none;fill-opacity:0.75;fill-rule:evenodd;stroke:black;stroke-width:1px;stroke-linecap:butt;stroke-linejoin:miter;stroke-opacity:1"
     id="path14030" />
  <path
     d="M 151.32085,401.50758 L 260.2153,408.57864"
     style="fill:none;fill-opacity:0.75;fill-rule:evenodd;stroke:black;stroke-width:1px;stroke-linecap:butt;stroke-linejoin:miter;stroke-opacity:1"
     id="path14033" />
  <path
     d="M 135.7645,460.90455 L 237.58788,472.21825"
     style="fill:none;fill-opacity:0.75;fill-rule:evenodd;stroke:black;stroke-width:1px;stroke-linecap:butt;stroke-linejoin:miter;stroke-opacity:1"
     id="path14035" />
  <text
     x="351.61133"
     y="467.2814"
     style="font-size:20px;font-family:Times New Roman"
     id="text14037"
     xml:space="preserve"><tspan
       x="351.61133"
       y="467.2814"
       id="tspan14039">p</tspan></text>
  <text
     x="125.39259"
     y="462.7814"
     id="text14041"
     xml:space="preserve"><tspan
       x="125.39259"
       y="462.7814"
       style="font-size:20px;font-family:Times New Roman"
       id="tspan14043">a</tspan></text>
  <text
     x="139.13087"
     y="404.85364"
     id="text14045"
     xml:space="preserve"><tspan
       x="139.13087"
       y="404.85364"
       style="font-size:20px;font-family:Times New Roman"
       id="tspan14047">b</tspan></text>
  <text
     x="51.113293"
     y="265.53137"
     id="text14049"
     xml:space="preserve"><tspan
       x="51.113293"
       y="265.53137"
       style="font-size:20px;font-family:Times New Roman"
       id="tspan14051">c</tspan></text>
  <text
     x="96.343765"
     y="238.85364"
     id="text14053"
     xml:space="preserve"><tspan
       x="96.343765"
       y="238.85364"
       style="font-size:20px;font-family:Times New Roman"
       id="tspan14055">d</tspan></text>
  <text
     x="334.67383"
     y="286.13541"
     style="font-family:Times New Roman"
     id="text14057"
     xml:space="preserve"><tspan
       x="334.67383"
       y="286.13541"
       style="font-size:20px"
       id="tspan14059">o</tspan></text>
  <text
     x="316.28342"
     y="176.81081"
     style="font-family:Times New Roman"
     id="text14061"
     xml:space="preserve"><tspan
       x="316.28342"
       y="176.81081"
       style="font-size:20px"
       id="tspan14063">n</tspan></text>
  <text
     x="137.17189"
     y="205.77164"
     style="font-family:Times New Roman"
     id="text14065"
     xml:space="preserve"><tspan
       x="137.17189"
       y="205.77164"
       style="font-size:20px"
       id="tspan14067">e</tspan></text>
  <text
     x="180.70119"
     y="120.1232"
     style="font-family:Times New Roman"
     id="text14069"
     xml:space="preserve"><tspan
       x="180.70119"
       y="120.1232"
       style="font-size:20px"
       id="tspan14071">f</tspan></text>
  <text
     x="336.1582"
     y="126.9064"
     style="font-family:Times New Roman"
     id="text14073"
     xml:space="preserve"><tspan
       x="336.1582"
       y="126.9064"
       style="font-size:20px"
       id="tspan14075">m</tspan></text>
  <text
     x="480.02539"
     y="126.60366"
     style="font-family:Times New Roman"
     id="text14077"
     xml:space="preserve"><tspan
       x="480.02539"
       y="126.60366"
       style="font-size:20px"
       id="tspan14079">l</tspan></text>
  <text
     x="412.09573"
     y="95.853661"
     style="font-family:Times New Roman"
     id="text14081"
     xml:space="preserve"><tspan
       x="412.09573"
       y="95.853661"
       style="font-size:20px"
       id="tspan14083">k</tspan></text>
  <text
     x="400.64651"
     y="52.843899"
     style="font-family:Times New Roman"
     id="text14085"
     xml:space="preserve"><tspan
       x="400.64651"
       y="52.843899"
       style="font-size:20px"
       id="tspan14087">j</tspan></text>
  <text
     x="193.27541"
     y="84.031403"
     style="font-family:Times New Roman"
     id="text14089"
     xml:space="preserve"><tspan
       x="193.27541"
       y="84.031403"
       style="font-size:20px"
       id="tspan14091">g</tspan></text>
  <text
     x="250.80664"
     y="47.853664"
     style="font-family:Times New Roman"
     id="text14093"
     xml:space="preserve"><tspan
       x="250.80664"
       y="47.853664"
       style="font-size:20px"
       id="tspan14095">h</tspan></text>
  <text
     x="312.76563"
     y="39.353664"
     id="text14097"
     xml:space="preserve"><tspan
       x="312.76563"
       y="39.353664"
       style="font-size:20px;font-family:Times New Roman"
       id="tspan14099">i</tspan></text>
</svg>
